<?xml version="1.0" encoding="UTF-8" standalone="no"?>
<svg
   xmlns:dc="http://purl.org/dc/elements/1.1/"
   xmlns:cc="http://creativecommons.org/ns#"
   xmlns:rdf="http://www.w3.org/1999/02/22-rdf-syntax-ns#"
   xmlns:svg="http://www.w3.org/2000/svg"
   xmlns="http://www.w3.org/2000/svg"
   xmlns:sodipodi="http://sodipodi.sourceforge.net/DTD/sodipodi-0.dtd"
   xmlns:inkscape="http://www.inkscape.org/namespaces/inkscape"
   width="109.58825mm"
   height="24.661503mm"
   viewBox="0 0 109.58825 24.661503"
   version="1.1"
   id="svg8"
   inkscape:version="1.0.1 (3bc2e813f5, 2020-09-07)"
   sodipodi:docname="logo.svg">
  <defs
     id="defs2" />
  <sodipodi:namedview
     id="base"
     pagecolor="#ffffff"
     bordercolor="#666666"
     borderopacity="1.0"
     inkscape:pageopacity="0.0"
     inkscape:pageshadow="2"
     inkscape:zoom="1.4"
     inkscape:cx="113.83339"
     inkscape:cy="27.415643"
     inkscape:document-units="mm"
     inkscape:current-layer="layer1"
     inkscape:document-rotation="0"
     showgrid="false"
     fit-margin-top="0"
     fit-margin-left="0"
     fit-margin-right="0"
     fit-margin-bottom="0"
     inkscape:window-width="1920"
     inkscape:window-height="1018"
     inkscape:window-x="-6"
     inkscape:window-y="-6"
     inkscape:window-maximized="1"
     showguides="true"
     inkscape:snap-nodes="false"
     inkscape:guide-bbox="true"
     inkscape:snap-page="false" />
  <metadata
     id="metadata5">
    <rdf:RDF>
      <cc:Work
         rdf:about="">
        <dc:format>image/svg+xml</dc:format>
        <dc:type
           rdf:resource="http://purl.org/dc/dcmitype/StillImage" />
        <dc:title></dc:title>
      </cc:Work>
    </rdf:RDF>
  </metadata>
  <g
     inkscape:label="Layer 1"
     inkscape:groupmode="layer"
     id="layer1"
     transform="translate(55.558712,149.78743)"
     style="display:inline">
    <path
       style="opacity:1;fill:#fe886c;fill-opacity:1;stroke:none;stroke-width:0.1;stroke-linecap:butt;stroke-linejoin:miter;stroke-miterlimit:4;stroke-dasharray:none;stroke-opacity:1"
       d="m -51.853522,-142.45784 0.512205,0.14609 0.02362,-0.73048 -0.616065,-0.5295 -0.610158,-0.0296 -0.411559,0.74432 -0.06437,0.61927 0.785308,1.36331 1.701486,-0.009 0.867151,-1.13924 -0.0074,-2.36524 -0.699557,-1.00429 -2.188617,-0.80181 -2.0575,1.05154 -0.55327,2.42415 0.415582,1.84642 0.509237,1.14282 1.747876,2.41032 1.364864,2.58226 0.200452,2.31295 -0.247699,0.7517 -1.09742,1.01289 -1.5346,-0.37181 -0.389092,-0.7295 0.169909,-1.1693 0.973745,-0.76435 0.783917,0.42537 -0.260351,1.18971 -0.616873,0.0855 -0.06192,-0.28768 0.319409,-0.1613 -0.0383,-0.69214 -0.718635,0.55159 -0.05095,1.09388 1.146868,0.37931 1.052374,-1.05761 -0.12385,-1.89941 -1.37381,-1.15748 -2.130398,0.7338 -0.426799,3.03564 0.901441,1.67938 1.917294,0.8963 2.480002,-0.59191 1.043775,-1.81672 -0.323462,-3.89736 -1.455825,-2.59836 -2.384148,-3.52689 -0.265242,-1.10045 0.209398,-1.28625 1.114544,-0.67939 1.299724,0.75373 0.227535,1.3373 -0.353063,0.44769 -0.383606,-0.006 -0.388124,-0.50473 z"
       id="path3579"
       sodipodi:nodetypes="cccccccccccccccccccccccccccccccccccccccccccccccccccccccc" />
    <path
       style="opacity:1;fill:#fe886c;fill-opacity:1;stroke:none;stroke-width:0.1;stroke-linecap:butt;stroke-linejoin:miter;stroke-miterlimit:4;stroke-dasharray:none;stroke-opacity:1"
       d="m -48.974433,-146.19787 0.02446,2.1002 2.34827,0.001 0.246508,-0.45984 -0.147502,2.62799 0.05651,13.08097 2.031622,-0.0118 -0.02363,-2.18517 -1.476469,-0.47247 1.405599,-0.14174 0.02362,-12.44959 2.126117,0.11212 -0.02363,-2.20289 z"
       id="path3581"
       sodipodi:nodetypes="cccccccccccccc" />
    <path
       style="opacity:1;fill:#fe886c;fill-opacity:1;stroke:none;stroke-width:0.1;stroke-linecap:butt;stroke-linejoin:miter;stroke-miterlimit:4;stroke-dasharray:none;stroke-opacity:1"
       d="m -38.538213,-143.26362 0.03542,1.09259 0.502,0.006 -0.124026,1.13983 -1.322917,-0.0117 -0.02548,-1.71641 0.180636,-1.21106 1.995173,0.0477 0.497947,0.96999 -0.102499,2.48799 -0.975237,1.55258 -2.697379,0.19448 0.0979,0.69798 0.174943,9.19954 1.677948,-0.008 -0.29166,-6.57487 2.336038,6.56478 2.179918,-0.0668 -3.711528,-8.30109 1.401487,-0.70344 0.933416,-1.64884 0.371375,-2.29153 -0.315443,-2.24631 -1.146361,-1.33259 -1.515919,-0.67653 -2.639287,0.0167 0.33421,6.67976 3.011183,-0.7468 0.450004,-1.5331 -0.340167,-1.35389 -0.603581,-0.23347 z"
       id="path3583"
       sodipodi:nodetypes="cccccccccccccccccccccccccccccccc" />
    <path
       style="opacity:1;fill:#fe886c;fill-opacity:1;stroke:none;stroke-width:0.1;stroke-linecap:butt;stroke-linejoin:miter;stroke-miterlimit:4;stroke-dasharray:none;stroke-opacity:1"
       d="m -33.458594,-146.14561 0.434067,10.78241 -0.09897,6.57595 4.834822,-0.0709 1.76e-4,-1.81218 -2.960896,0.0665 0.06196,-6.8498 0.178263,0.76648 1.960069,-0.0279 -0.06885,-2.08552 -2.554753,0.008 0.619074,-5.29779 -0.646228,-0.28887 3.11847,0.004 0.09533,-1.8056 z"
       id="path3585"
       sodipodi:nodetypes="cccccccccccccccc" />
    <path
       style="opacity:1;fill:#fe886c;fill-opacity:1;stroke:none;stroke-width:0.1;stroke-linecap:butt;stroke-linejoin:miter;stroke-miterlimit:4;stroke-dasharray:none;stroke-opacity:1"
       d="m -8.4023228,-146.22938 0.2589169,12.46979 -0.3591408,4.87768 1.9126471,-0.0835 0.1322026,-8.40025 -0.399473,-0.28601 1.1978199,0.0544 0.6465785,0.0642 0.014677,-1.89011 -1.6753264,0.0509 0.00835,-4.0341 -0.2004542,-0.91039 3.4327439,0.0167 -0.041761,-1.97111 z"
       id="path3617"
       sodipodi:nodetypes="ccccccccccccccc" />
    <path
       style="opacity:1;fill:#fe886c;fill-opacity:1;stroke:none;stroke-width:0.1;stroke-linecap:butt;stroke-linejoin:miter;stroke-miterlimit:4;stroke-dasharray:none;stroke-opacity:1"
       d="m 1.874432,-146.10195 -1.22299825,-0.21096 -2.52235755,1.13591 -0.8185124,2.94831 0.0098,9.81929 1.97254488,3.56698 3.09351812,-0.44614 1.3086708,-3.52342 0.3695209,-6.0404 -0.4066363,-5.15388 -1.1494885,-1.25714 -2.50624354,2.36333 -0.64538913,4.97275 0.98310954,5.9918 0.32576452,0.0179 0.39598081,-0.54291 0.8040086,-3.31724 0.098201,-1.53495 -0.342019,-1.96944 -0.78223885,0.36379 0.42030015,1.99242 -1.1354236,0.18839 -0.29084266,-1.45357 0.974584,-3.48006 1.62503986,-0.30659 0.8370708,3.14276 -0.489146,4.5743 -0.989731,3.22812 -1.16512899,0.76422 -1.30140342,-1.09689 -1.09710309,-2.99023 0.1705036,-7.26002 1.3009121,-2.8599 z"
       id="path3619"
       sodipodi:nodetypes="cccccccccccccccccccccccccccccccccc" />
    <path
       style="opacity:1;fill:#fe886c;fill-opacity:1;stroke:none;stroke-width:0.1;stroke-linecap:butt;stroke-linejoin:miter;stroke-miterlimit:4;stroke-dasharray:none;stroke-opacity:1"
       d="m 13.214994,-146.18702 -0.01181,13.64258 2.256045,0.41341 1.665457,-2.62221 0.285508,-2.4096 0.08066,-2.56315 -1.26386,-2.49228 -1.452843,0.0473 0.921317,6.28385 0.236233,-2.94113 1.322917,0.0236 -0.127189,1.61272 -0.510648,2.24972 -1.839768,1.80517 -0.924183,-9.83716 1.582774,-1.12212 2.2088,1.44103 1.063058,3.55534 -0.850448,4.93732 -1.726195,2.95664 -2.915823,0.36246 0.0049,1.96075 4.039274,-0.87086 1.968018,-3.15695 0.8032,-3.08287 -0.05906,-4.0278 -0.95675,-3.61441 -2.870256,-2.59858 z"
       id="path3636"
       sodipodi:nodetypes="ccccccccccccccccccccccccccccc" />
    <path
       style="fill:#ffb169;fill-opacity:1;stroke:none;stroke-width:0.1;stroke-linecap:butt;stroke-linejoin:round;stroke-miterlimit:4;stroke-dasharray:none;stroke-opacity:1"
       d="m 48.947581,-149.78724 c 0.330485,-0.023 5.156251,2.07348 5.081084,5.61396 -0.08777,4.13425 -5.599647,5.75748 -9.451433,8.96022 -4.463128,3.71107 -6.336197,7.53838 -6.387675,9.1562 -0.015,0.47142 -0.224278,0.86681 -0.803045,0.92415 -0.486937,0.0482 -0.966841,-0.15955 -1.129767,-0.65055 -0.217989,-0.65695 -0.334085,-1.41152 -2.605877,-3.88376 -2.206062,-2.40072 -9.327812,-8.53334 -9.153981,-13.27995 0.13566,-3.70432 3.608165,-4.96558 6.537131,-5.00439 1.904542,-0.0252 4.533306,0.94404 6.061998,2.62056 1.283495,-2.73951 2.802613,-3.61398 4.042207,-4.22368 -1.391969,0.80769 -2.986023,2.75147 -3.865377,4.9941 -2.438835,-2.10475 -4.574125,-2.67961 -6.912734,-2.44575 -2.338608,0.23386 -4.667907,1.75426 -4.627103,3.99234 0.04938,2.70839 2.539061,5.54584 4.810852,7.85104 2.27179,2.3052 5.796407,5.3955 6.197311,6.59821 0.618063,-2.87314 3.738358,-5.84814 5.779703,-7.7007 4.6255,-4.19772 9.908048,-4.77622 10.135485,-7.78017 0.264358,-3.4916 -3.361423,-5.64283 -3.708779,-5.74183 z"
       id="path838"
       sodipodi:nodetypes="csssssssscccssscssc" />
    <path
       style="display:inline;opacity:1;fill:#fe886c;fill-opacity:1;stroke:none;stroke-width:0.1;stroke-linecap:butt;stroke-linejoin:miter;stroke-miterlimit:4;stroke-dasharray:none;stroke-opacity:1"
       d="m -26.691427,-146.14561 0.434067,10.78241 -0.09897,6.57595 4.834822,-0.0709 1.76e-4,-1.81218 -2.960896,0.0665 0.06196,-6.8498 0.178263,0.76648 1.960069,-0.0279 -0.06885,-2.08552 -2.554753,0.008 0.619074,-5.29779 -0.646228,-0.28887 3.11847,0.004 0.09533,-1.8056 z"
       id="path3585-8"
       sodipodi:nodetypes="cccccccccccccccc" />
    <path
       style="display:inline;opacity:1;fill:#fe886c;fill-opacity:1;stroke:none;stroke-width:0.1;stroke-linecap:butt;stroke-linejoin:miter;stroke-miterlimit:4;stroke-dasharray:none;stroke-opacity:1"
       d="m -20.212535,-146.19787 0.02446,2.1002 2.34827,0.001 0.246508,-0.45984 -0.147502,2.62799 0.05651,13.08097 2.031622,-0.0118 -0.02363,-2.18517 -1.476469,-0.47247 1.405599,-0.14174 0.02362,-12.44959 2.126117,0.11212 -0.02363,-2.20289 z"
       id="path3581-6"
       sodipodi:nodetypes="cccccccccccccc" />
    <path
       style="display:inline;opacity:1;fill:#fe886c;fill-opacity:1;stroke:none;stroke-width:0.1;stroke-linecap:butt;stroke-linejoin:miter;stroke-miterlimit:4;stroke-dasharray:none;stroke-opacity:1"
       d="m 9.7007569,-146.10195 -1.222998,-0.21096 -2.5223579,1.13591 -0.818512,2.94831 0.0098,9.81929 1.9725449,3.56698 3.0935181,-0.44614 1.308671,-3.52342 0.369521,-6.0404 -0.406637,-5.15388 -1.149488,-1.25714 -2.5062441,2.36333 -0.645389,4.97275 0.98311,5.9918 0.325764,0.0179 0.395981,-0.54291 0.804009,-3.31724 0.0982,-1.53495 -0.342019,-1.96944 -0.782239,0.36379 0.4203,1.99242 -1.135423,0.18839 -0.290843,-1.45357 0.974584,-3.48006 1.6250401,-0.30659 0.83707,3.14276 -0.489146,4.5743 -0.9897301,3.22812 -1.16513,0.76422 -1.301403,-1.09689 -1.0971029,-2.99023 0.170504,-7.26002 1.3009119,-2.8599 z"
       id="path3619-2"
       sodipodi:nodetypes="cccccccccccccccccccccccccccccccccc" />
  </g>
</svg>
